<svg version="1.1" id="Layer_1" xmlns="http://www.w3.org/2000/svg" xmlns:xlink="http://www.w3.org/1999/xlink" x="0px" y="0px"
	 width="100%" viewBox="0 0 672 1024" enable-background="new 0 0 672 1024" xml:space="preserve">
<path fill="#000000" opacity="1.000000" stroke="none" 
	d="
M356.836975,642.594116 
	C362.260803,626.115295 367.435669,609.935242 372.992798,593.887512 
	C374.349823,589.968872 372.665100,587.541077 370.597656,584.863098 
	C365.170685,585.681396 363.058197,589.288269 361.582733,594.385437 
	C357.788330,607.493774 353.395935,620.429443 349.200775,633.420654 
	C348.759216,634.788086 348.523163,636.330566 347.281189,637.322571 
	C345.210052,636.437012 345.885925,634.712769 345.882324,633.362793 
	C345.838745,617.030518 345.871063,600.698059 345.852173,584.365662 
	C345.849426,581.989136 346.229736,579.895996 347.689606,577.819641 
	C350.259796,574.164246 350.514404,570.348816 346.833954,567.079407 
	C343.809570,564.392700 338.496796,564.138733 335.771271,566.707886 
	C332.397339,569.888184 332.148346,573.707520 334.438110,577.605103 
	C335.476013,579.371826 336.270386,581.057617 336.266266,583.175659 
	C336.232269,600.674622 336.270325,618.173828 336.256470,635.672913 
	C336.255859,636.446716 335.963867,637.220215 335.814667,637.958984 
	C333.510986,638.108337 333.765686,636.360962 333.405945,635.239685 
	C328.878693,621.127869 324.248108,607.046326 319.975037,592.857361 
	C318.595001,588.274780 316.167236,585.657715 311.348724,585.288330 
	C308.179535,587.805542 307.879303,590.782288 309.184052,594.578735 
	C314.270142,609.378296 319.150787,624.249146 323.994415,639.130432 
	C324.636566,641.103333 325.873962,643.079468 325.157257,645.387329 
	C323.259766,646.085083 322.380157,644.571533 321.387482,643.642151 
	C293.897705,617.905273 266.443604,592.130188 238.959274,566.387451 
	C237.137543,564.681213 236.218521,563.300842 237.249496,560.411987 
	C239.259811,554.778992 234.349426,550.193176 228.469208,552.040466 
	C226.101440,552.784363 224.476776,552.670349 222.642303,550.956665 
	C196.463638,526.501404 170.236008,502.098663 144.037064,477.665100 
	C143.714752,477.364532 143.613251,476.827179 143.417221,476.418213 
	C144.338608,474.917877 145.573166,475.601501 146.560699,475.944702 
	C164.170471,482.064972 182.364792,486.387421 199.731232,493.259003 
	C203.517700,494.757233 207.230576,493.179565 208.408081,489.795624 
	C209.593323,486.389496 207.483749,482.181885 203.591431,481.969421 
	C195.933044,481.551392 189.174637,478.199036 181.995285,476.279694 
	C173.473862,474.001495 165.090485,471.205750 156.653625,468.613708 
	C155.423050,468.235657 153.954697,468.269073 153.203400,466.764923 
	C153.816483,465.025116 155.381256,465.685791 156.528519,465.683990 
	C175.360977,465.654541 194.193527,465.694885 213.026047,465.686768 
	C214.898911,465.685974 216.537949,466.090088 218.249130,466.967499 
	C222.805313,469.303711 227.939651,468.346405 230.356842,464.798889 
	C232.706985,461.349762 232.531158,457.867737 229.707077,454.726929 
	C226.801239,451.495148 222.482407,451.290100 217.942993,454.239136 
	C216.199783,455.371582 214.469910,456.086792 212.376587,456.087860 
	C193.044327,456.097717 173.712082,456.149200 154.379822,456.151642 
	C153.480057,456.151764 152.580276,455.801880 151.655792,455.609894 
	C152.059631,453.207092 153.918518,453.414948 155.175415,453.022461 
	C168.687271,448.803497 182.213745,444.629517 195.772095,440.562897 
	C197.971649,439.903168 200.378677,439.967346 202.632050,439.446838 
	C205.575073,438.767059 207.830994,437.071838 208.518738,433.977417 
	C209.043182,431.617737 207.959610,429.708405 206.069366,428.354553 
	C203.526001,426.532928 200.898087,426.334198 198.174393,428.145691 
	C193.082321,431.532379 187.041885,432.457031 181.386398,434.316284 
	C169.368378,438.267090 157.232498,441.859497 145.143753,445.594971 
	C144.361450,445.836731 143.572906,446.198212 142.665833,445.591583 
	C141.975632,443.764679 143.619461,443.033630 144.583969,442.092224 
	C169.743347,417.535706 194.944534,393.021973 220.082993,368.444092 
	C222.357330,366.220428 224.186584,364.392365 227.661911,366.670898 
	C230.420990,368.479828 233.177338,366.986023 235.311996,364.893219 
	C237.331085,362.913635 238.588150,360.451294 236.946381,357.702545 
	C235.286469,354.923401 236.388474,353.120605 238.378342,351.195526 
	C266.038116,324.436218 293.659363,297.637085 321.327209,270.886139 
	C322.431122,269.818787 323.349121,268.116943 325.404602,268.575073 
	C326.443512,270.151520 325.415833,271.508362 324.960266,272.851379 
	C319.772675,288.144836 314.685272,303.475250 309.215332,318.667755 
	C307.897675,322.327545 310.498199,324.223419 311.408936,326.965973 
	C317.221130,326.127289 319.572052,322.425629 321.154572,316.933228 
	C324.886475,303.980774 329.359100,291.241760 333.532104,278.416412 
	C333.830505,277.499207 333.865143,276.393158 335.267944,276.148102 
	C336.923798,277.072296 336.228638,278.747894 336.231323,280.087036 
	C336.262238,295.586212 336.187897,311.085632 336.231171,326.584717 
	C336.238892,329.340149 335.591217,331.756409 334.290619,334.192352 
	C332.268036,337.980530 332.464935,341.756226 336.183746,344.429199 
	C339.540710,346.842133 343.206146,346.492767 346.377991,343.950256 
	C349.922821,341.108795 350.169891,337.479645 347.915955,333.692993 
	C346.871155,331.937714 346.090485,330.215668 346.088196,328.102631 
	C346.070740,312.104370 345.984924,296.106232 345.946320,280.107971 
	C345.943604,278.984100 345.750702,277.740112 346.980438,276.843933 
	C348.761017,276.912567 348.706055,278.588043 349.053070,279.658783 
	C352.902252,291.534607 356.759064,303.409760 360.403656,315.349243 
	C362.078156,320.834808 363.031860,326.674438 370.525116,326.854126 
	C376.412018,321.705933 371.528778,316.193756 369.893250,310.877411 
	C365.881378,297.836884 361.422638,284.933929 357.159515,271.970428 
	C356.800385,270.878418 356.352325,269.754761 357.395691,267.936707 
	C362.780304,272.936340 368.131714,277.727173 373.286102,282.721375 
	C396.979034,305.678162 420.602722,328.706421 444.302399,351.656281 
	C446.154663,353.449951 447.322784,354.932922 445.838379,357.637360 
	C444.322754,360.398712 444.823547,363.160767 447.300171,365.312103 
	C449.602966,367.312439 452.121796,368.375366 455.001099,366.439056 
	C457.524475,364.742188 459.271057,365.961853 461.101257,367.745087 
	C486.635956,392.624298 512.205322,417.467957 537.745667,442.341370 
	C538.650391,443.222443 539.958740,443.933411 539.807739,445.576569 
	C538.644897,446.909912 537.373230,446.078278 536.182617,445.700287 
	C520.486816,440.717682 504.790985,435.734650 489.116791,430.684631 
	C487.072754,430.026123 485.104065,429.083038 483.181152,428.112030 
	C480.677277,426.847656 478.383179,426.940613 476.210938,428.750732 
	C474.353394,430.298615 473.821930,432.324097 474.305634,434.606171 
	C474.879883,437.315399 476.609314,439.130219 479.292542,439.593933 
	C495.753357,442.438507 511.074005,449.283112 527.229126,453.193481 
	C528.397949,453.476410 529.955872,453.598022 530.233459,455.433807 
	C528.938660,456.935516 527.168335,456.280762 525.640869,456.282654 
	C507.808441,456.304840 489.975830,456.220947 472.143433,456.254822 
	C468.899597,456.260986 466.035370,455.826721 463.258484,453.794556 
	C459.537994,451.071838 455.507080,451.614777 452.403961,454.911407 
	C449.427490,458.073486 449.289948,461.988525 451.957245,465.428223 
	C454.769501,469.054871 458.664856,469.793945 462.667938,467.527435 
	C465.274658,466.051514 467.899139,465.679321 470.784576,465.688690 
	C488.950195,465.747589 507.116150,465.715088 525.281860,465.756317 
	C526.977295,465.760162 528.873413,465.247009 530.680542,466.990906 
	C526.797607,469.784821 522.448242,470.299927 518.439270,471.425110 
	C505.318909,475.107452 492.526215,479.959076 479.072235,482.466919 
	C475.263123,483.176941 472.782562,487.087158 473.866516,490.185364 
	C475.064209,493.608704 478.680603,495.027161 482.461243,493.556946 
	C500.023987,486.727203 518.388611,482.373047 536.162476,476.191925 
	C536.868530,475.946381 537.734436,476.160645 538.538879,476.160645 
	C539.092834,478.702972 537.166321,479.659698 535.953247,480.795044 
	C510.655640,504.470947 485.292938,528.077271 459.990051,551.747559 
	C458.254974,553.370667 456.703400,553.704224 454.658142,552.501038 
	C452.012238,550.944519 449.513092,551.575745 447.255615,553.401733 
	C444.856964,555.341919 444.425781,557.981384 445.480347,560.637085 
	C446.569458,563.379761 445.402222,564.897095 443.525940,566.640625 
	C416.190796,592.041992 388.915039,617.507324 361.593536,642.923401 
	C360.309296,644.118042 359.127899,645.673950 357.154755,645.692200 
	C355.902069,644.852112 356.578003,643.865051 356.836975,642.594116 
M374.727783,497.567871 
	C374.765930,488.969543 374.765930,488.961517 383.467560,488.947998 
	C399.293671,488.923401 415.121765,488.765320 430.944702,488.980591 
	C435.565338,489.043427 437.007751,487.475739 436.962402,482.941437 
	C436.777466,464.451721 436.899231,445.959045 436.888519,427.467438 
	C436.884888,421.206238 436.625519,420.807465 430.476654,420.958679 
	C414.494080,421.351715 398.525116,419.950775 382.531464,420.845947 
	C374.749725,421.281464 374.718628,420.939758 374.717896,413.371979 
	C374.716278,396.712860 374.613922,380.052399 374.809387,363.395508 
	C374.862549,358.867004 373.346161,357.188110 368.757019,357.232483 
	C350.600281,357.407959 332.439301,357.446106 314.283600,357.228149 
	C309.378967,357.169281 308.010376,358.997223 308.064026,363.662567 
	C308.259369,380.652466 308.020325,397.647217 308.191223,414.637665 
	C308.235474,419.034424 307.194305,420.646912 302.321259,420.590454 
	C285.338989,420.393677 268.349854,420.896057 251.363312,420.896667 
	C246.585815,420.896851 245.069397,422.736420 245.112152,427.434082 
	C245.280441,445.923492 245.222504,464.417053 245.011658,482.906342 
	C244.960388,487.402283 246.352249,489.020752 251.016266,488.957733 
	C267.838654,488.730499 284.666260,488.875641 301.491852,488.907623 
	C307.644501,488.919312 308.094025,489.326294 308.112427,495.380371 
	C308.164062,512.372559 308.271698,529.366150 308.090912,546.356384 
	C308.041321,551.016907 309.409943,552.840698 314.336151,552.776917 
	C332.324921,552.544067 350.318634,552.707886 368.310455,552.688110 
	C374.387451,552.681458 374.669434,552.385437 374.683990,546.030640 
	C374.720184,530.204529 374.713470,514.378296 374.727783,497.567871 
M217.317856,511.217133 
	C222.601013,513.841492 226.902527,512.909485 229.351257,508.609924 
	C231.204514,505.355896 229.983063,501.427429 226.442261,499.253662 
	C222.477890,496.819855 217.526352,498.024109 215.015305,502.596985 
	C213.611252,505.153931 211.869919,505.539764 209.373001,505.480652 
	C202.236801,505.311676 195.097122,505.283997 187.958603,505.225281 
	C186.719650,505.215118 185.202332,504.759125 184.860413,506.727478 
	C185.654068,508.327393 187.095474,507.818756 188.355911,507.817291 
	C195.495041,507.809082 202.636703,507.891113 209.772064,507.718018 
	C212.668015,507.647797 214.969315,508.386749 217.317856,511.217133 
M229.421890,413.260681 
	C226.198441,407.795959 221.177780,406.042511 217.227173,409.905884 
	C213.766632,413.290070 210.090408,413.515320 205.890320,413.428619 
	C199.739151,413.301636 193.584442,413.350250 187.431381,413.305206 
	C186.267792,413.296692 185.041229,413.063171 184.592148,414.693451 
	C185.107559,416.769836 186.731689,416.146759 188.175064,416.130188 
	C195.167175,416.050018 202.160400,416.056122 209.151917,415.946747 
	C211.821259,415.905029 213.864212,416.449005 215.329681,419.091217 
	C217.412918,422.847290 221.054703,423.671204 224.852173,422.315155 
	C228.552536,420.993774 230.249069,418.046387 229.421890,413.260681 
M482.495117,415.964050 
	C487.635193,415.964050 492.775269,415.964050 498.425873,415.964050 
	C497.218109,413.437592 496.050903,413.586395 494.866150,413.613464 
	C488.220001,413.765228 481.571747,413.836700 474.926697,414.023071 
	C471.485260,414.119537 468.663483,413.599304 466.107574,410.640778 
	C462.841797,406.860535 457.566132,407.514771 454.360077,411.381104 
	C451.614380,414.692169 452.124725,418.718262 455.628693,421.389587 
	C459.153198,424.076599 464.717194,423.520813 467.052765,419.587524 
	C468.937347,416.413666 471.369934,415.850372 474.522888,415.955353 
	C476.849182,416.032837 479.180237,415.966949 482.495117,415.964050 
M467.924622,503.758484 
	C467.703857,503.312531 467.533875,502.831635 467.254547,502.426025 
	C464.174225,497.952881 459.133972,496.858673 455.293976,499.812531 
	C451.834137,502.473877 451.472229,506.883636 454.431366,510.322906 
	C457.458832,513.841675 462.377625,513.921875 466.230652,510.126404 
	C468.090302,508.294556 470.034637,507.755157 472.460388,507.772430 
	C479.594177,507.823151 486.728851,507.801514 493.862640,507.740631 
	C495.008789,507.730865 496.623657,508.395813 497.062103,505.923340 
	C489.584595,505.923340 482.238037,505.938843 474.891663,505.914093 
	C472.611237,505.906403 470.188599,506.408264 467.924622,503.758484 
M373.234253,341.520447 
	C375.470306,342.219849 377.606293,341.753113 377.965912,339.369537 
	C378.419861,336.361084 375.737091,335.947357 373.627106,335.160553 
	C372.401154,337.249634 370.506927,338.906647 373.234253,341.520447 
M308.181976,341.803345 
	C310.321259,341.160706 311.135101,339.789642 310.162628,337.724670 
	C309.617035,336.566040 308.868408,335.335632 307.194733,335.826477 
	C305.894714,336.207733 304.715942,336.858124 304.473938,338.325867 
	C304.098206,340.604523 305.364807,341.619202 308.181976,341.803345 
M307.209686,569.494812 
	C304.960175,569.489136 303.849152,570.830872 303.720245,572.859680 
	C303.623474,574.382629 304.830017,575.159546 306.189392,575.547302 
	C307.733856,575.987793 308.717682,575.140381 309.474365,573.954285 
	C310.840363,571.813232 309.690948,570.592957 307.209686,569.494812 
M373.740173,575.870056 
	C376.693207,575.490540 378.628754,574.191284 377.089905,570.985168 
	C376.291992,569.322754 374.495239,568.881653 372.871918,570.192871 
	C370.531250,572.083496 371.448517,573.904724 373.740173,575.870056 
z"/>
<path fill="#000000" opacity="1.000000" stroke="none" 
	d="
M572.402893,470.040100 
	C568.050171,476.020264 562.465210,478.283630 555.636292,476.976807 
	C550.347473,475.964752 546.705017,472.674988 544.900269,467.608887 
	C542.491882,460.848389 544.802734,454.160248 550.733398,450.133057 
	C556.136841,446.463928 564.413940,446.887329 569.342529,451.085114 
	C574.575073,455.541870 575.845093,462.777893 572.402893,470.040100 
z"/>
<path fill="#000000" opacity="1.000000" stroke="none" 
	d="
M326.721863,667.885437 
	C324.992584,659.024475 328.112030,652.460632 335.221832,649.402649 
	C341.589172,646.664124 349.027588,648.846985 353.358948,654.725159 
	C358.104218,661.165100 356.746338,670.378418 350.342133,675.194580 
	C343.653473,680.224854 334.134216,678.907837 329.000824,672.167542 
	C328.108612,670.995972 327.539062,669.578796 326.721863,667.885437 
z"/>
<path fill="#000000" opacity="1.000000" stroke="none" 
	d="
M138.301346,463.714111 
	C136.206955,472.200958 130.795654,476.957794 123.443359,477.170471 
	C117.171761,477.351898 110.482773,472.588715 108.759758,466.504028 
	C107.072960,460.547272 108.451492,455.253937 113.140297,451.172821 
	C117.922646,447.010284 123.425240,445.972198 129.334122,448.659943 
	C135.577103,451.499634 138.675156,456.356079 138.301346,463.714111 
z"/>
<path fill="#000000" opacity="1.000000" stroke="none" 
	d="
M355.742920,253.270111 
	C351.475464,263.635010 342.434174,267.737335 334.096527,263.418701 
	C327.318085,259.907684 324.424255,252.454086 326.994476,245.125854 
	C329.419739,238.210968 336.697296,234.046829 343.659454,235.590363 
	C352.027466,237.445572 356.680298,244.037704 355.742920,253.270111 
z"/>
</svg>